<svg class="logo" xmlns="http://www.w3.org/2000/svg" viewBox="-8 -14 254 80">
  <defs>
    <filter x="-25%" y="-25%" width="150%" height="150%" id="b">
      <feGaussianBlur in="SourceGraphic" stdDeviation="2" result="blur"/>
    </filter>
    <g id="a">
      <path id="S" d="M18.5 51.9c-6.8 0-11.9-1.6-17-6.2-3.8-2.9.1-8.8 4.2-5.9A17 17 0 0 0 18.4 45c4.5 0 10.4-2.1 10.6-7.2-.3-6.3-6.9-7.7-12.4-9C8.5 27.5 1 23.5 1.1 14.4c0-15.8 23-18 32.4-9.1 1.2 1 1.8 2 1.8 3.2 0 2.5-3.2 4.7-5.2 3-5-4.7-15.6-6.6-20.5-1.1-1.7 2-1.6 5.8.1 7.7 2.4 2.5 6.1 3.3 9.7 4.2 4.6 1.1 9 2.1 12.4 4.8 3.3 2.6 4.5 6 4.5 10.4C36.3 46.8 27 52 18.5 52Z"/>
      <path id="L" d="M70.6 44c4.8 0 4.8 7.1 0 7.1H46.4c-1 0-1.9-.3-2.6-1-.7-.7-1-1.6-1-2.6v-43c0-2.3 1.7-3.8 3.9-3.8 1.9 0 3.7 1.7 3.6 3.7v41L48.8 44h21.8Z"/>
      <g id="E">
        <path d="m88 44.8-.4-.6H109c1 0 2 .4 2.7 1 2.3 2.3.5 6.1-2.7 6H84.2c-2 0-3.7-1.7-3.7-3.7V4.4c0-2 1.6-3.7 3.7-3.7H109c3.2-.2 5 4 2.7 6a4 4 0 0 1-2.7 1H87.4l.7-1.3"/>
        <path d="M97.2 22.4c1 0 1.9.4 2.6 1 .7.7 1 1.6 1 2.6s-.3 1.9-1 2.5a4 4 0 0 1-2.6 1H87a4 4 0 0 1-2.6-1c-.7-.8-1-1.6-1-2.7s.3-1.8 1-2.4a4 4 0 0 1 2.6-1"/>
      </g>
      <path id="C" d="M154.2 3.6c2.2 1 2.5 3.8 1 5.5-1.1 1.6-3 1.5-4.6.7C138 3.1 123.1 11 123.5 26c-.1 7.7 3.6 15 10.8 17.6a20.2 20.2 0 0 0 16.3-1.2c1.7-.8 3.5-.6 4.6.8 1.5 1.8 1.3 4.5-.9 5.4-17.5 9.4-39.1-1.8-38.7-22.6-.2-20.2 21.3-31.8 38.6-22.3Z"/>
      <path id="T" d="M163.3 7.7c-3.2.1-5-3.9-2.6-6 .8-.7 1.6-1 2.6-1H196c4.9 0 5 7 0 7h-32.7ZM179.7 51c-2.2 0-4-1.5-4-3.6V4.3h7.9v43.2c0 2.1-1.8 3.7-4 3.6Z"/>
      <g id="A">
        <path d="M216 10.2 199.8 49c-1.5 4.2-7.8 2.6-6.3-1.9L211.8 3c.5-1.6 2-2.6 3.5-2.5 1.6 0 3 1 3.5 2.5l18 43.6c.3.4.4 1 .4 1.4 0 4-5.4 4.8-6.7 1L214 10.4l1.9-.1Z"/>
        <path d="M225.5 29.8c1 0 2 .3 2.7 1 .7.7 1 1.6 1 2.6s-.3 1.8-1 2.5a4 4 0 0 1-2.7.9h-21c-1.1 0-2-.3-2.7-1-.7-.7-1-1.6-1-2.6s.3-1.8 1-2.5a4 4 0 0 1 2.6-.9"/>
      </g>
    </g>
  </defs>
  <use href="#a" y="-4" stroke="red" stroke-width="5" filter="url(#b)"/>
  <use href="#a" y="4" stroke="#0ff" stroke-width="3" filter="url(#b)"/>
  <use href="#a" fill="white" />
</svg>